<svg width="298" height="333" viewBox="0 0 298 333" fill="none" xmlns="http://www.w3.org/2000/svg">
<path d="M142.462 332.063C139.412 329.773 135.552 329.123 132.462 326.823C124.232 320.713 120.032 312.693 120.522 302.453C120.662 299.573 119.752 297.993 117.262 296.583C95.429 284.223 73.6756 271.766 52.0023 259.213C48.7323 257.313 46.4223 257.363 43.0823 259.323C29.0023 267.573 11.5823 262.543 3.55229 248.323C-4.05771 234.833 1.12229 217.593 15.3423 209.873C18.0723 208.393 19.0623 206.873 19.0423 203.773C18.9223 178.693 18.9223 153.606 19.0423 128.513C19.0423 125.513 18.1923 123.863 15.4223 122.363C1.13229 114.623 -4.10771 97.3727 3.45229 83.9127C11.5823 69.4627 29.2123 64.4627 43.3923 72.9727C46.6523 74.9727 48.8623 74.6627 51.8623 72.9727C73.7023 60.3227 95.5623 47.7027 117.562 35.3427C120.662 33.5927 120.452 31.4527 120.452 28.7927C120.355 21.8222 122.825 15.0594 127.39 9.79134C131.956 4.52325 138.299 1.11767 145.212 0.222716C152.118 -0.641023 159.103 1.02525 164.876 4.91336C170.648 8.80148 174.817 14.6484 176.612 21.3727C177.209 23.1001 177.457 24.9287 177.342 26.7527C176.532 31.9527 178.882 34.6227 183.342 37.0927C204.332 48.8227 225.182 60.8727 246.002 72.9727C249.002 74.7227 251.222 74.9727 254.472 73.0327C268.892 64.5127 286.272 69.4427 294.362 83.9527C301.962 97.5827 296.832 114.553 282.502 122.363C279.752 123.863 278.862 125.463 278.872 128.513C278.992 153.593 278.992 178.679 278.872 203.773C278.872 206.873 279.872 208.393 282.582 209.873C296.862 217.683 301.982 234.793 294.312 248.303C286.072 262.823 268.742 267.673 254.382 259.123C251.382 257.313 249.252 257.373 246.382 259.053C224.382 271.779 202.352 284.426 180.292 296.993C178.642 297.943 177.292 298.673 177.382 300.993C178.102 316.583 170.452 326.353 156.032 331.343C155.772 331.433 155.632 331.823 155.432 332.073L142.462 332.063ZM240.052 206.573C240.262 206.753 240.592 207.113 240.662 207.063C241.222 206.713 240.902 206.373 240.562 206.063C240.501 205.574 240.373 205.097 240.182 204.643C229.142 185.583 218.099 166.526 207.052 147.473C205.812 145.323 204.592 145.403 202.662 146.473C195.092 150.903 187.402 155.153 179.842 159.603C176.112 161.803 176.252 170.303 179.992 172.533C184.692 175.323 189.452 178.023 194.212 180.713C209.479 189.359 224.759 197.979 240.052 206.573ZM120.542 56.9127C119.9 56.9009 119.26 57.0024 118.652 57.2127C98.7456 68.5261 78.8623 79.8761 59.0023 91.2627C56.2023 92.8727 56.5723 101.913 59.4223 103.573C66.4223 107.663 73.7123 111.403 80.5523 115.783C84.2623 118.163 85.9823 117.783 88.1423 113.893C95.1423 101.433 102.522 89.2327 109.552 76.8227C113.292 70.2127 117.792 64.0227 120.552 56.8827C120.872 56.7727 121.552 56.8827 120.872 56.2327L120.542 56.9127ZM57.8623 206.593C58.2054 206.568 58.5427 206.49 58.8623 206.363C78.7356 195.029 98.5956 183.696 118.442 172.363C121.702 170.493 121.442 161.523 118.142 159.593C110.842 155.333 103.412 151.283 96.1923 146.913C93.1923 145.073 91.8123 145.693 90.1923 148.743C86.0023 156.453 81.1923 163.843 76.9623 171.513C70.4523 183.083 63.0023 194.073 57.3423 206.073C57.0023 206.383 56.6423 206.723 57.2323 207.073C57.3023 207.143 57.6423 206.773 57.8623 206.593ZM149.122 56.9727C146.792 57.3227 144.122 55.8427 142.272 59.1527C129.639 81.1661 116.882 103.106 104.002 124.973C102.572 127.393 103.002 128.673 105.372 129.973C112.772 134.063 120.092 138.293 127.372 142.563C129.182 143.633 130.452 143.563 132.262 142.323C143.352 134.833 154.592 134.843 165.672 142.323C166.346 142.903 167.197 143.237 168.086 143.269C168.974 143.302 169.848 143.032 170.562 142.503C177.722 138.333 184.872 134.123 192.182 130.223C195.182 128.643 195.262 127.223 193.662 124.493C181.302 103.479 169.036 82.4261 156.862 61.3327C155.002 58.1427 153.272 55.7727 149.122 56.9727ZM230.832 225.033L231.022 224.193C210.449 212.419 189.882 200.643 169.322 188.863C166.902 187.463 165.372 188.703 163.472 189.753C153.862 195.063 144.092 195.263 134.602 189.753C131.682 188.053 129.672 188.243 126.952 189.813C108.142 200.683 89.2423 211.393 70.4123 222.213C69.3123 222.853 67.4123 223.003 67.6123 225.063L230.832 225.033ZM231.902 244.723H67.5623C67.5023 245.823 68.1823 246.033 68.7323 246.353C88.4323 257.673 108.162 268.953 127.822 280.353C130.212 281.743 131.822 280.733 133.692 279.603C143.872 273.513 154.152 273.443 164.242 279.703C166.722 281.233 168.572 281.253 171.022 279.843C185.512 271.453 200.092 263.183 214.622 254.843C220.002 251.793 225.322 248.613 231.902 244.753V244.723ZM177.562 58.2827C188.742 77.5027 199.889 96.6927 211.002 115.853C212.452 118.373 213.932 117.743 215.882 116.593C223.172 112.303 230.532 108.143 237.882 103.883C241.952 101.503 241.882 92.9627 237.822 90.6027C219.689 80.1827 201.549 69.7927 183.402 59.4327C181.682 58.4427 180.002 57.2827 177.562 58.2827ZM38.5623 196.553C39.2023 196.613 39.4723 196.693 39.5023 196.633C51.0156 177.026 62.5256 157.413 74.0323 137.793C75.3623 135.553 74.3923 134.613 72.5223 133.553C65.2823 129.493 58.1423 125.263 50.8923 121.213C45.6323 118.283 38.5723 122.523 38.5723 128.553C38.5723 149.979 38.5723 171.413 38.5723 192.853L38.5623 196.553ZM258.292 196.823L259.292 196.433C259.292 173.353 259.292 150.273 259.292 127.183C259.292 123.003 251.722 118.663 248.012 120.713C240.602 124.813 233.382 129.253 225.902 133.223C222.802 134.863 222.902 136.343 224.502 139.003C229.622 147.543 234.502 156.233 239.502 164.823C245.749 175.516 252.022 186.183 258.322 196.823H258.292ZM149.212 156.473C146.799 156.386 144.448 157.253 142.67 158.887C140.892 160.521 139.829 162.79 139.712 165.203C139.602 169.833 144.162 174.383 148.942 174.383C151.352 174.283 153.638 173.284 155.348 171.583C157.058 169.882 158.069 167.602 158.182 165.193C158.162 160.603 154.002 156.553 149.212 156.473ZM158.212 28.6327C158.292 23.9127 153.792 19.4427 148.962 19.4427C144.132 19.4427 139.662 23.9327 139.732 28.6427C139.802 33.1327 144.162 37.4727 148.732 37.6427C153.432 37.7627 158.102 33.3327 158.182 28.6327H158.212ZM148.882 312.633C153.812 312.633 158.242 308.293 158.222 303.563C158.202 298.833 153.502 294.383 148.812 294.563C144.122 294.743 139.562 299.283 139.742 303.933C139.955 306.236 140.995 308.385 142.67 309.98C144.345 311.576 146.541 312.511 148.852 312.613L148.882 312.633ZM37.8123 97.1327C37.7672 94.7458 36.7758 92.4745 35.056 90.8186C33.3363 89.1626 31.0292 88.2576 28.6423 88.3027C26.2553 88.3478 23.9841 89.3393 22.3281 91.059C20.6722 92.7787 19.7672 95.0858 19.8123 97.4727C19.8175 98.6374 20.0531 99.7895 20.5054 100.863C20.9577 101.936 21.6179 102.909 22.448 103.726C23.278 104.543 24.2615 105.188 25.3417 105.623C26.422 106.059 27.5777 106.276 28.7423 106.263C29.9411 106.272 31.1297 106.042 32.2383 105.586C33.3469 105.13 34.3532 104.456 35.1981 103.606C36.043 102.755 36.7095 101.745 37.1584 100.633C37.6073 99.5215 37.8296 98.3314 37.8123 97.1327ZM278.132 97.1327C278.112 95.3635 277.571 93.6394 276.577 92.176C275.583 90.7125 274.179 89.5746 272.542 88.9045C270.904 88.2344 269.105 88.0618 267.37 88.4082C265.635 88.7547 264.041 89.6049 262.786 90.8526C261.532 92.1003 260.673 93.69 260.317 95.4231C259.961 97.1563 260.124 98.9559 260.785 100.597C261.446 102.238 262.576 103.648 264.034 104.65C265.492 105.653 267.213 106.203 268.982 106.233C270.187 106.268 271.386 106.058 272.507 105.616C273.628 105.174 274.647 104.509 275.503 103.66C276.358 102.812 277.033 101.799 277.485 100.682C277.937 99.5646 278.157 98.3674 278.132 97.1627V97.1327ZM29.1323 225.833C27.8998 225.685 26.6503 225.795 25.462 226.153C24.2738 226.512 23.1727 227.113 22.2278 227.918C21.2829 228.723 20.5147 229.714 19.9715 230.83C19.4283 231.946 19.1219 233.163 19.0714 234.403C19.0209 235.643 19.2275 236.88 19.6781 238.037C20.1288 239.193 20.8138 240.244 21.6901 241.123C22.5665 242.002 23.6151 242.691 24.7703 243.145C25.9254 243.599 27.162 243.809 28.4023 243.763C29.6347 243.91 30.8843 243.801 32.0725 243.442C33.2608 243.083 34.3619 242.482 35.3068 241.678C36.2517 240.873 37.0198 239.881 37.563 238.765C38.1062 237.649 38.4127 236.433 38.4632 235.192C38.5137 233.952 38.3071 232.715 37.8564 231.559C37.4058 230.402 36.7208 229.351 35.8444 228.472C34.9681 227.593 33.9194 226.905 32.7643 226.451C31.6092 225.996 30.3726 225.786 29.1323 225.833ZM268.892 243.763C271.242 243.836 273.526 242.981 275.25 241.383C276.973 239.784 277.998 237.571 278.102 235.223C278.179 234.018 278.007 232.81 277.599 231.674C277.19 230.538 276.553 229.497 275.726 228.617C274.899 227.737 273.901 227.036 272.793 226.557C271.684 226.078 270.49 225.832 269.282 225.833C268.043 225.699 266.789 225.825 265.601 226.201C264.412 226.578 263.315 227.197 262.378 228.02C261.442 228.843 260.686 229.851 260.16 230.982C259.634 232.112 259.348 233.339 259.321 234.585C259.294 235.832 259.526 237.07 260.003 238.222C260.479 239.374 261.19 240.414 262.09 241.277C262.99 242.14 264.059 242.807 265.23 243.234C266.401 243.662 267.648 243.842 268.892 243.763Z" fill="#3E8ECD"/>
</svg>
