<svg width="143" height="30" viewBox="0 0 143 30" fill="none" xmlns="http://www.w3.org/2000/svg">
<path d="M37.392 20V8.8H39.968V16.096L45.312 8.8H47.744V20H45.184V12.72L39.84 20H37.392ZM58.2126 8.8H60.8046V20H58.2126V8.8ZM53.1246 20H50.5326V8.8H53.1246V20ZM58.4046 15.408H52.9326V13.216H58.4046V15.408ZM69.5308 19.296C68.0801 19.296 66.8481 19.104 65.8348 18.72C64.8321 18.336 64.0694 17.7813 63.5468 17.056C63.0241 16.32 62.7628 15.424 62.7628 14.368C62.7628 13.312 63.0241 12.4213 63.5468 11.696C64.0694 10.96 64.8321 10.4 65.8348 10.016C66.8481 9.632 68.0801 9.44 69.5308 9.44C69.5521 9.44 69.6108 9.44 69.7068 9.44C69.8134 9.44 69.9148 9.44 70.0108 9.44C70.1174 9.44 70.1761 9.44 70.1868 9.44C71.6268 9.44 72.8428 9.632 73.8348 10.016C74.8374 10.4 75.5948 10.96 76.1068 11.696C76.6188 12.432 76.8748 13.3227 76.8748 14.368C76.8748 15.4027 76.6188 16.2933 76.1068 17.04C75.6054 17.776 74.8641 18.336 73.8828 18.72C72.9121 19.104 71.7228 19.296 70.3148 19.296C70.2828 19.296 70.2081 19.296 70.0908 19.296C69.9734 19.296 69.8561 19.296 69.7388 19.296C69.6321 19.296 69.5628 19.296 69.5308 19.296ZM69.7708 17.296C69.8028 17.296 69.8454 17.296 69.8988 17.296C69.9521 17.296 69.9894 17.296 70.0108 17.296C70.9921 17.296 71.8028 17.1893 72.4428 16.976C73.0934 16.752 73.5788 16.4267 73.8988 16C74.2188 15.5627 74.3788 15.0133 74.3788 14.352C74.3788 13.6907 74.2134 13.1467 73.8828 12.72C73.5521 12.2933 73.0668 11.9787 72.4268 11.776C71.7974 11.5627 71.0028 11.456 70.0428 11.456C70.0214 11.456 69.9788 11.456 69.9148 11.456C69.8614 11.456 69.8134 11.456 69.7708 11.456C68.7574 11.456 67.9201 11.5573 67.2588 11.76C66.5974 11.9627 66.1014 12.2827 65.7708 12.72C65.4401 13.1467 65.2748 13.696 65.2748 14.368C65.2748 15.04 65.4508 15.5947 65.8028 16.032C66.1548 16.4587 66.6614 16.7787 67.3228 16.992C67.9948 17.1947 68.8108 17.296 69.7708 17.296ZM68.6348 20.496V8.32H71.0188V20.496H68.6348ZM84.1739 20.192C83.2885 20.192 82.4672 20.048 81.7099 19.76C80.9632 19.472 80.3125 19.0667 79.7579 18.544C79.2139 18.0213 78.7872 17.408 78.4779 16.704C78.1792 16 78.0299 15.232 78.0299 14.4C78.0299 13.568 78.1792 12.8 78.4779 12.096C78.7872 11.392 79.2192 10.7787 79.7739 10.256C80.3285 9.73333 80.9792 9.328 81.7259 9.04C82.4725 8.752 83.2832 8.608 84.1579 8.608C85.0432 8.608 85.8539 8.752 86.5899 9.04C87.3365 9.328 87.9819 9.73333 88.5259 10.256C89.0805 10.7787 89.5125 11.392 89.8219 12.096C90.1312 12.7893 90.2859 13.5573 90.2859 14.4C90.2859 15.232 90.1312 16.0053 89.8219 16.72C89.5125 17.424 89.0805 18.0373 88.5259 18.56C87.9819 19.072 87.3365 19.472 86.5899 19.76C85.8539 20.048 85.0485 20.192 84.1739 20.192ZM84.1579 17.984C84.6592 17.984 85.1179 17.8987 85.5339 17.728C85.9605 17.5573 86.3339 17.312 86.6539 16.992C86.9739 16.672 87.2192 16.2933 87.3899 15.856C87.5712 15.4187 87.6619 14.9333 87.6619 14.4C87.6619 13.8667 87.5712 13.3813 87.3899 12.944C87.2192 12.5067 86.9739 12.128 86.6539 11.808C86.3445 11.488 85.9765 11.2427 85.5499 11.072C85.1232 10.9013 84.6592 10.816 84.1579 10.816C83.6565 10.816 83.1925 10.9013 82.7659 11.072C82.3499 11.2427 81.9819 11.488 81.6619 11.808C81.3419 12.128 81.0912 12.5067 80.9099 12.944C80.7392 13.3813 80.6539 13.8667 80.6539 14.4C80.6539 14.9227 80.7392 15.408 80.9099 15.856C81.0912 16.2933 81.3365 16.672 81.6459 16.992C81.9659 17.312 82.3392 17.5573 82.7659 17.728C83.1925 17.8987 83.6565 17.984 84.1579 17.984ZM92.0821 20.176C91.8901 20.176 91.6875 20.16 91.4741 20.128C91.2715 20.096 91.0475 20.0533 90.8021 20L90.9621 17.808C91.1115 17.8507 91.2661 17.872 91.4261 17.872C91.8635 17.872 92.2048 17.696 92.4501 17.344C92.6955 16.9813 92.8715 16.464 92.9781 15.792C93.0848 15.12 93.1541 14.304 93.1861 13.344L93.3461 8.8H101.954V20H99.3941V10.32L99.9861 10.912H95.0421L95.5701 10.288L95.4741 13.248C95.4421 14.3467 95.3675 15.3227 95.2501 16.176C95.1328 17.0293 94.9515 17.7547 94.7061 18.352C94.4608 18.9493 94.1248 19.4027 93.6981 19.712C93.2715 20.0213 92.7328 20.176 92.0821 20.176ZM103.487 20L108.479 8.8H111.039L116.047 20H113.327L109.231 10.112H110.255L106.143 20H103.487ZM105.983 17.6L106.671 15.632H112.431L113.135 17.6H105.983ZM117.533 20V8.8H120.109V16.096L125.453 8.8H127.885V20H125.325V12.72L119.981 20H117.533ZM122.701 8.08C121.634 8.08 120.85 7.86667 120.349 7.44C119.858 7.01333 119.607 6.41067 119.597 5.632H121.373C121.383 6.016 121.495 6.30933 121.709 6.512C121.933 6.704 122.263 6.8 122.701 6.8C123.127 6.8 123.453 6.704 123.677 6.512C123.901 6.30933 124.018 6.016 124.029 5.632H125.805C125.794 6.41067 125.538 7.01333 125.037 7.44C124.535 7.86667 123.757 8.08 122.701 8.08ZM138.353 8.8H140.945V20H138.353V8.8ZM133.265 20H130.673V8.8H133.265V20ZM138.545 15.408H133.073V13.216H138.545V15.408Z" fill="white"/>
<path d="M13.3917 29.9991C13.105 29.7922 12.7422 29.7335 12.4517 29.5257C11.6781 28.9737 11.2832 28.2492 11.3293 27.3241C11.3425 27.0639 11.2569 26.9212 11.0229 26.7938C8.97049 25.6772 6.92564 24.5518 4.88831 23.4177C4.58092 23.2461 4.36378 23.2506 4.04981 23.4276C2.72627 24.173 1.08876 23.7185 0.333922 22.4339C-0.381432 21.2152 0.105497 19.6577 1.4422 18.9602C1.69883 18.8265 1.79189 18.6892 1.79001 18.4092C1.77873 16.1434 1.77873 13.877 1.79001 11.6101C1.79001 11.339 1.71011 11.19 1.44972 11.0545C0.106437 10.3552 -0.386132 8.79681 0.324522 7.58081C1.08876 6.27538 2.74601 5.82367 4.07895 6.59248C4.3854 6.77316 4.59314 6.74515 4.87515 6.59248C6.92815 5.44965 8.98303 4.30954 11.0511 3.19292C11.3425 3.03482 11.3227 2.84149 11.3227 2.60118C11.3136 1.97146 11.5457 1.36049 11.9749 0.884566C12.4041 0.408638 13.0003 0.100972 13.6502 0.0201205C14.2994 -0.0579111 14.956 0.0926227 15.4986 0.443881C16.0412 0.79514 16.4331 1.32336 16.6019 1.93085C16.658 2.0869 16.6813 2.2521 16.6705 2.41688C16.5944 2.88666 16.8153 3.12787 17.2345 3.35102C19.2076 4.41073 21.1675 5.49934 23.1247 6.59248C23.4067 6.75057 23.6153 6.77316 23.9209 6.5979C25.2764 5.82819 26.9101 6.27357 27.6706 7.58443C28.385 8.81578 27.9028 10.3489 26.5557 11.0545C26.2972 11.19 26.2136 11.3345 26.2145 11.6101C26.2258 13.8758 26.2258 16.1422 26.2145 18.4092C26.2145 18.6892 26.3085 18.8265 26.5632 18.9602C27.9056 19.6658 28.3869 21.2116 27.6659 22.4321C26.8913 23.7438 25.2623 24.182 23.9124 23.4096C23.6304 23.2461 23.4302 23.2515 23.1604 23.4033C21.0923 24.553 19.0215 25.6955 16.9478 26.8308C16.7927 26.9166 16.6658 26.9826 16.6743 27.1922C16.7419 28.6006 16.0228 29.4832 14.6673 29.934C14.6429 29.9422 14.6297 29.9774 14.6109 30L13.3917 29.9991ZM22.5653 18.6621C22.5851 18.6784 22.6161 18.7109 22.6227 18.7064C22.6753 18.6748 22.6452 18.6441 22.6133 18.616C22.6075 18.5719 22.5955 18.5288 22.5776 18.4878C21.5398 16.7659 20.5017 15.0442 19.4633 13.3229C19.3467 13.1287 19.232 13.1359 19.0506 13.2326C18.339 13.6328 17.6162 14.0168 16.9055 14.4188C16.5549 14.6175 16.568 15.3854 16.9196 15.5869C17.3614 15.8389 17.8089 16.0829 18.2563 16.3259C19.6914 17.107 21.1277 17.8858 22.5653 18.6621ZM11.3312 5.14159C11.2708 5.14052 11.2106 5.14969 11.1535 5.16869C9.28227 6.19076 7.4132 7.21613 5.54632 8.24483C5.28312 8.39028 5.3179 9.20696 5.5858 9.35693C6.24381 9.72643 6.92909 10.0643 7.57206 10.46C7.92081 10.675 8.08249 10.6407 8.28553 10.2893C8.94355 9.1636 9.63728 8.06143 10.2981 6.94029C10.6497 6.34313 11.0727 5.78392 11.3321 5.13888C11.3622 5.12894 11.4261 5.13888 11.3622 5.08016L11.3312 5.14159ZM5.43916 18.6639C5.47141 18.6617 5.50311 18.6546 5.53316 18.6431C7.40129 17.6193 9.26817 16.5954 11.1338 15.5715C11.4402 15.4026 11.4158 14.5922 11.1056 14.4179C10.4194 14.033 9.72094 13.6671 9.04225 13.2723C8.76024 13.1061 8.63052 13.1621 8.47824 13.4377C8.08437 14.1342 7.63222 14.8018 7.23459 15.4947C6.62264 16.54 5.92233 17.5329 5.39028 18.617C5.35832 18.645 5.32448 18.6757 5.37994 18.7073C5.38652 18.7136 5.41848 18.6802 5.43916 18.6639ZM14.0178 5.14701C13.7987 5.17863 13.5478 5.04492 13.3739 5.34395C12.1863 7.33268 10.9871 9.31477 9.7764 11.2902C9.64198 11.5089 9.6824 11.6245 9.90518 11.742C10.6008 12.1114 11.2889 12.4936 11.9732 12.8794C12.1434 12.976 12.2627 12.9697 12.4329 12.8577C13.4754 12.181 14.532 12.1819 15.5735 12.8577C15.6368 12.9101 15.7168 12.9402 15.8004 12.9432C15.8839 12.9462 15.966 12.9217 16.0332 12.8739C16.7062 12.4972 17.3783 12.1169 18.0655 11.7645C18.3475 11.6218 18.355 11.4935 18.2046 11.2469C17.0427 9.3485 15.8897 7.44651 14.7453 5.5409C14.5705 5.25271 14.4079 5.0386 14.0178 5.14701ZM21.6986 20.3298L21.7165 20.2539C19.7826 19.1903 17.8493 18.1264 15.9166 17.0622C15.6891 16.9357 15.5453 17.0477 15.3667 17.1426C14.4633 17.6223 13.5449 17.6404 12.6529 17.1426C12.3784 16.989 12.1894 17.0062 11.9337 17.148C10.1656 18.13 8.38894 19.0976 6.61888 20.0751C6.51548 20.1329 6.33688 20.1464 6.35568 20.3325L21.6986 20.3298ZM21.7992 22.1087H6.35098C6.34534 22.208 6.40926 22.227 6.46096 22.2559C8.31279 23.2786 10.1674 24.2976 12.0155 25.3275C12.2402 25.4531 12.3915 25.3619 12.5673 25.2598C13.5243 24.7096 14.4906 24.7033 15.4391 25.2688C15.6722 25.407 15.8461 25.4088 16.0764 25.2815C17.4385 24.5235 18.809 23.7764 20.1749 23.0229C20.6806 22.7474 21.1807 22.4601 21.7992 22.1114V22.1087ZM16.6912 5.26536C17.7421 7.00172 18.7899 8.73538 19.8346 10.4663C19.9709 10.694 20.11 10.6371 20.2933 10.5332C20.9786 10.1456 21.6704 9.76979 22.3614 9.38494C22.7439 9.16992 22.7374 8.39841 22.3557 8.1852C20.6512 7.24384 18.946 6.30519 17.2401 5.36925C17.0785 5.27981 16.9205 5.17502 16.6912 5.26536ZM3.62492 17.7569C3.68509 17.7623 3.71047 17.7695 3.71329 17.7641C4.79556 15.9928 5.87752 14.2209 6.95917 12.4484C7.08419 12.2461 6.99301 12.1611 6.81722 12.0654C6.13665 11.6986 5.46548 11.3164 4.78397 10.9506C4.28952 10.6859 3.62586 11.0689 3.62586 11.6137C3.62586 13.5494 3.62586 15.4857 3.62586 17.4226L3.62492 17.7569ZM24.2799 17.7813L24.3739 17.7461C24.3739 15.661 24.3739 13.5759 24.3739 11.4899C24.3739 11.1123 23.6623 10.7202 23.3136 10.9054C22.617 11.2758 21.9384 11.6769 21.2352 12.0356C20.9438 12.1837 20.9532 12.3174 21.1036 12.5577C21.5849 13.3293 22.0436 14.1143 22.5136 14.8904C23.1008 15.8564 23.6905 16.8201 24.2828 17.7813H24.2799ZM14.0262 14.136C13.7994 14.1281 13.5784 14.2065 13.4112 14.3541C13.2441 14.5018 13.1442 14.7068 13.1332 14.9247C13.1229 15.343 13.5515 15.754 14.0008 15.754C14.2274 15.745 14.4422 15.6548 14.603 15.5011C14.7637 15.3474 14.8588 15.1415 14.8694 14.9238C14.8675 14.5091 14.4765 14.1432 14.0262 14.136ZM14.8722 2.58673C14.8798 2.16031 14.4568 1.75649 14.0027 1.75649C13.5487 1.75649 13.1285 2.16212 13.1351 2.58763C13.1417 2.99326 13.5515 3.38535 13.9811 3.40071C14.4229 3.41155 14.8619 3.01133 14.8694 2.58673H14.8722ZM13.9952 28.2438C14.4586 28.2438 14.8751 27.8517 14.8732 27.4244C14.8713 26.997 14.4295 26.595 13.9886 26.6113C13.5478 26.6275 13.1191 27.0377 13.136 27.4578C13.156 27.6659 13.2538 27.86 13.4112 28.0041C13.5687 28.1483 13.7751 28.2328 13.9924 28.242L13.9952 28.2438ZM3.55442 8.77513C3.55019 8.55949 3.45699 8.3543 3.29533 8.2047C3.13368 8.0551 2.9168 7.97334 2.69243 7.97741C2.46805 7.98149 2.25455 8.07106 2.09888 8.22642C1.94322 8.38178 1.85815 8.59021 1.86239 8.80585C1.86288 8.91106 1.88502 9.01515 1.92754 9.11211C1.97007 9.20907 2.03213 9.29698 2.11015 9.37079C2.18817 9.44461 2.28062 9.50285 2.38217 9.54218C2.48371 9.58151 2.59235 9.60114 2.70183 9.59995C2.81452 9.6008 2.92625 9.58001 3.03046 9.53879C3.13467 9.49758 3.22927 9.43677 3.30869 9.35993C3.38811 9.2831 3.45076 9.19179 3.49296 9.09136C3.53516 8.99094 3.55605 8.88342 3.55442 8.77513ZM26.1449 8.77513C26.1431 8.6153 26.0922 8.45954 25.9987 8.32733C25.9053 8.19512 25.7733 8.09232 25.6194 8.03178C25.4655 7.97124 25.2964 7.95564 25.1333 7.98695C24.9702 8.01825 24.8203 8.09506 24.7024 8.20778C24.5845 8.32049 24.5037 8.46411 24.4703 8.62068C24.4368 8.77726 24.4521 8.93984 24.5142 9.0881C24.5764 9.23636 24.6826 9.36373 24.8197 9.45429C24.9567 9.54484 25.1185 9.59457 25.2848 9.59724C25.398 9.60045 25.5108 9.5815 25.6161 9.54155C25.7215 9.5016 25.8173 9.44148 25.8977 9.36484C25.9782 9.28821 26.0416 9.19665 26.0841 9.09574C26.1266 8.99483 26.1473 8.88668 26.1449 8.77784V8.77513ZM2.73849 20.4021C2.62264 20.3888 2.50517 20.3987 2.39348 20.4311C2.28178 20.4635 2.17827 20.5178 2.08945 20.5905C2.00063 20.6632 1.92842 20.7528 1.87736 20.8536C1.8263 20.9544 1.79749 21.0643 1.79274 21.1764C1.788 21.2884 1.80742 21.4002 1.84978 21.5046C1.89214 21.6091 1.95654 21.7041 2.03891 21.7835C2.12129 21.8629 2.21987 21.9251 2.32845 21.9661C2.43703 22.0071 2.55327 22.0261 2.66987 22.0219C2.78572 22.0352 2.90318 22.0254 3.01488 21.993C3.12657 21.9605 3.23008 21.9063 3.3189 21.8336C3.40772 21.7608 3.47993 21.6713 3.53099 21.5704C3.58206 21.4696 3.61086 21.3597 3.61561 21.2477C3.62036 21.1356 3.60094 21.0239 3.55857 20.9194C3.51621 20.8149 3.45182 20.72 3.36944 20.6406C3.28707 20.5611 3.18849 20.499 3.07991 20.4579C2.97132 20.4169 2.85508 20.3979 2.73849 20.4021ZM25.2764 22.0219C25.4972 22.0285 25.7119 21.9513 25.874 21.8069C26.036 21.6625 26.1323 21.4626 26.1421 21.2504C26.1493 21.1416 26.1332 21.0324 26.0948 20.9298C26.0564 20.8272 25.9965 20.7332 25.9187 20.6537C25.841 20.5742 25.7472 20.5108 25.643 20.4676C25.5388 20.4243 25.4265 20.402 25.313 20.4021C25.1965 20.39 25.0786 20.4014 24.9669 20.4354C24.8552 20.4694 24.7521 20.5254 24.664 20.5997C24.576 20.6741 24.505 20.7652 24.4555 20.8673C24.406 20.9694 24.3792 21.0802 24.3766 21.1928C24.3741 21.3054 24.3959 21.4173 24.4407 21.5214C24.4855 21.6254 24.5523 21.7194 24.6369 21.7974C24.7215 21.8753 24.822 21.9355 24.9321 21.9742C25.0422 22.0128 25.1594 22.0291 25.2764 22.0219Z" fill="#3E8ECD"/>
</svg>
