<svg xmlns="http://www.w3.org/2000/svg" style="display: none;">
    <!-- Маркер позиции -->
    <symbol id="map-marker-solid" viewBox="0 0 25 25">
        <path
            d="M12.5 1.38889C10.337 1.39069 8.2625 2.24839 6.72974 3.77465C5.19698 5.3009 4.33047 7.37169 4.31946 9.53472C4.31946 12.7778 6.1389 15.4931 7.47224 17.4722L7.71529 17.8333C9.04187 19.756 10.465 21.6102 11.9792 23.3889L12.507 24.0069L13.0347 23.3889C14.5487 21.6101 15.9718 19.7558 17.2986 17.8333L17.5417 17.4653C18.8681 15.4861 20.6875 12.7778 20.6875 9.53472C20.6765 7.37049 19.809 5.29865 18.2748 3.7722C16.7405 2.24574 14.6643 1.38886 12.5 1.38889ZM12.5 13.1944C11.599 13.1944 10.7182 12.9273 9.96908 12.4267C9.21993 11.9261 8.63603 11.2146 8.29123 10.3822C7.94643 9.5498 7.85622 8.63383 8.03199 7.75014C8.20777 6.86645 8.64164 6.05473 9.27875 5.41762C9.91586 4.78052 10.7276 4.34664 11.6113 4.17086C12.495 3.99509 13.4109 4.0853 14.2434 4.4301C15.0758 4.7749 15.7872 5.3588 16.2878 6.10795C16.7884 6.85711 17.0556 7.73788 17.0556 8.63889C17.0556 9.84709 16.5756 11.0058 15.7213 11.8601C14.8669 12.7145 13.7082 13.1944 12.5 13.1944Z"
            fill="#1E92E7" />
        <path
            d="M12.5 11.2292C13.9306 11.2292 15.0903 10.0695 15.0903 8.63889C15.0903 7.20832 13.9306 6.04861 12.5 6.04861C11.0694 6.04861 9.90973 7.20832 9.90973 8.63889C9.90973 10.0695 11.0694 11.2292 12.5 11.2292Z"
            fill="#1E92E7" />
    </symbol>

    <!-- Телефон -->
    <symbol id="phone" viewBox="0 0 24 24">
        <circle cx="12" cy="12" r="12" fill="#1E92E7" />
        <path
            d="M13.6567 15.003L14.7207 13.939C14.8641 13.7975 15.0454 13.7006 15.2427 13.6601C15.44 13.6196 15.6448 13.6373 15.8322 13.711L17.129 14.2287C17.3184 14.3056 17.4809 14.4369 17.5958 14.6059C17.7108 14.775 17.7731 14.9743 17.775 15.1787V17.5537C17.7739 17.6928 17.7447 17.8302 17.6891 17.9577C17.6334 18.0852 17.5526 18.2001 17.4514 18.2955C17.3503 18.3909 17.2308 18.4649 17.1003 18.5129C16.9698 18.5609 16.8309 18.582 16.692 18.575C7.60525 18.0097 5.77175 10.3147 5.425 7.36974C5.4089 7.22512 5.42361 7.07874 5.46815 6.94021C5.51269 6.80168 5.58606 6.67415 5.68343 6.56601C5.7808 6.45788 5.89996 6.37158 6.03307 6.31281C6.16619 6.25403 6.31024 6.2241 6.45575 6.22499H8.75C8.95473 6.2256 9.15459 6.28744 9.32389 6.40256C9.49319 6.51769 9.62417 6.68082 9.7 6.871L10.2177 8.16774C10.2939 8.35445 10.3133 8.55945 10.2736 8.75713C10.2339 8.95481 10.1368 9.13641 9.9945 9.27924L8.9305 10.3432C8.9305 10.3432 9.54325 14.49 13.6567 15.003Z"
            fill="#2C3B45" />
    </symbol>

    <!-- Стрелка влево -->
    <symbol id="arrow-left" viewBox="0 0 16 31" fill="none">
        <path d="M15.6066 0.999877L1 15.6064L15.6066 30.213" stroke="currentColor" />
    </symbol>

    <!-- Стрелка вправо -->
    <symbol id="arrow-right" viewBox="0 0 16 31" fill="none">
        <path d="M0.606565 30.213L15.2131 15.6064L0.606568 0.999876" stroke="currentColor" />
    </symbol>
</svg>